<?xml version="1.0" encoding="iso-8859-1"?>
<!-- Uploaded to: SVG Repo, www.svgrepo.com, Generator: SVG Repo Mixer Tools -->
<svg version="1.1" id="Layer_1" xmlns="http://www.w3.org/2000/svg" xmlns:xlink="http://www.w3.org/1999/xlink" 
	 viewBox="0 0 511.999 511.999" xml:space="preserve">
<path style="fill:#EFD18D;" d="M227.482,363.57v-45.697c0-3.141,2.547-5.689,5.689-5.689h45.66c3.141,0,5.689,2.547,5.689,5.689
	v57.042c9.58,1.006,19.219,1.637,28.709,1.861V274.219H198.773v79.584c4.821,1.291,9.771,2.904,14.837,4.907
	C218.04,360.462,222.689,362.072,227.482,363.57z"/>
<path style="fill:#E1B658;" d="M273.141,373.537v-49.975h-34.282v43.255C249.798,369.656,261.352,371.902,273.141,373.537z
	 M245.987,351.316c1.062-1.062,2.528-1.669,4.02-1.669c1.492,0,2.958,0.607,4.02,1.669c1.063,1.049,1.669,2.516,1.669,4.02
	c0,1.492-0.606,2.958-1.669,4.02c-1.062,1.062-2.528,1.669-4.02,1.669c-1.492,0-2.958-0.607-4.02-1.669
	c-1.062-1.062-1.669-2.528-1.669-4.02C244.317,353.831,244.926,352.366,245.987,351.316z"/>
<path style="fill:#FFFFFF;" d="M135.933,195.039c-6.83,0-12.389,5.557-12.389,12.386s5.557,12.386,12.389,12.386
	c6.829,0,12.385-5.556,12.385-12.386S142.761,195.039,135.933,195.039z"/>
<polygon style="fill:#E1B658;" points="290.888,204.065 290.888,214.087 305.989,228.103 305.989,204.065 "/>
<path style="fill:#FFFFFF;" d="M126.746,300.51c-6.828,0-12.384,5.556-12.384,12.385c0,6.829,5.556,12.386,12.384,12.386
	s12.384-5.556,12.384-12.386C139.13,306.066,133.575,300.51,126.746,300.51z"/>
<rect x="81.751" y="481.271" style="fill:#E1B658;" width="348.511" height="19.351"/>
<path style="fill:#EFD18D;" d="M81.745,452.224v17.671h348.509v-17.671c0-19.899-16.189-36.086-36.086-36.086H117.833
	C97.932,416.138,81.745,432.325,81.745,452.224z"/>
<path style="fill:#FFFFFF;" d="M209.427,369.291c-43.886-17.353-77.943-3.407-91.292,3.925
	c13.878,12.453,29.506,23.134,46.625,31.543h182.479c13.209-6.489,25.541-14.32,36.859-23.28
	c-17.955,4.643-39.273,6.799-61.425,6.799C282.484,388.28,239.625,381.233,209.427,369.291z"/>
<polygon style="fill:#FF5240;" points="185.305,262.843 326.694,262.843 256.001,197.231 "/>
<g>
	<path style="fill:#FFFFFF;" d="M213.405,125.874c-6.828,0-12.384,5.555-12.384,12.382c0,6.83,5.556,12.386,12.384,12.386
		c6.829,0,12.386-5.557,12.386-12.386C225.791,131.429,220.236,125.874,213.405,125.874z"/>
	<path style="fill:#FFFFFF;" d="M373.375,127.471c0-6.829-5.556-12.386-12.385-12.386c-6.829,0-12.385,5.557-12.385,12.386
		c0,6.828,5.556,12.382,12.385,12.382C367.82,139.854,373.375,134.3,373.375,127.471z"/>
	<path style="fill:#FFFFFF;" d="M411.533,216.616c-6.829,0-12.386,5.557-12.386,12.386c0,6.828,5.557,12.382,12.386,12.382
		c6.828,0,12.384-5.555,12.384-12.382C423.917,222.173,418.361,216.616,411.533,216.616z"/>
	<path style="fill:#FFFFFF;" d="M285.2,50.557c-6.828,0-12.384,5.556-12.384,12.385c0,6.828,5.556,12.382,12.384,12.382
		c6.829,0,12.385-5.555,12.385-12.382C297.585,56.113,292.03,50.557,285.2,50.557z"/>
	<path style="fill:#FFFFFF;" d="M383.731,305.487c-6.829,0-12.385,5.553-12.385,12.381c0,6.831,5.556,12.39,12.385,12.39
		c6.83,0,12.387-5.558,12.387-12.39C396.117,311.042,390.561,305.487,383.731,305.487z"/>
</g>
<path style="fill:#BDF3FF;" d="M255.999,11.377c-114.281,0-207.256,92.975-207.256,207.257c0,55.453,22.681,108.059,60.8,146.405
	c10.451-6.278,39.182-20.343,77.853-13.725V274.22h-16.583c-2.34,0-4.441-1.432-5.294-3.61c-0.856-2.178-0.291-4.657,1.425-6.247
	l85.188-79.062c2.197-2.039,5.56-1.987,7.721,0.02l0.019-0.02l19.641,18.229v-5.153c0-3.141,2.547-5.689,5.689-5.689h26.477
	c3.141,0,5.689,2.547,5.689,5.689v40.286l27.69,25.699c1.715,1.592,2.28,4.071,1.425,6.249c-0.855,2.178-2.956,3.609-5.295,3.609
	h-16.582v102.636c34.165-0.335,65.172-5.919,82.641-16.793c35.219-37.858,56.012-88.338,56.012-141.428
	C463.257,104.352,370.282,11.377,255.999,11.377z M126.746,336.659c-13.102,0-23.761-10.661-23.761-23.763
	c0-13.103,10.659-23.762,23.761-23.762s23.761,10.661,23.761,23.762C150.507,325.999,139.849,336.659,126.746,336.659z
	 M135.933,231.189c-13.104,0-23.766-10.661-23.766-23.763c0-13.103,10.662-23.763,23.766-23.763
	c13.102,0,23.762,10.66,23.762,23.763C159.695,220.528,149.034,231.189,135.933,231.189z M183.562,68.179
	c-47.489,20.087-80.98,64.264-87.403,115.291c-0.362,2.876-2.813,4.978-5.637,4.978c-0.238,0-0.477-0.015-0.717-0.046
	c-3.117-0.393-5.327-3.237-4.934-6.355c6.927-55.039,43.045-102.687,94.258-124.349c2.891-1.224,6.23,0.129,7.455,3.024
	C187.808,63.618,186.455,66.955,183.562,68.179z M213.405,162.02c-13.102,0-23.761-10.661-23.761-23.763
	c0-13.102,10.659-23.76,23.761-23.76c13.103,0,23.763,10.658,23.763,23.76C237.169,151.359,226.508,162.02,213.405,162.02z
	 M285.2,86.701c-13.102,0-23.761-10.659-23.761-23.76c0-13.103,10.659-23.762,23.761-23.762s23.762,10.659,23.762,23.762
	C308.962,76.042,298.301,86.701,285.2,86.701z M337.228,127.471c0-13.103,10.661-23.763,23.762-23.763s23.762,10.66,23.762,23.763
	c0,13.102-10.661,23.76-23.762,23.76C347.889,151.232,337.228,140.573,337.228,127.471z M383.731,341.635
	c-13.102,0-23.762-10.662-23.762-23.767c0-13.1,10.661-23.758,23.762-23.758c13.103,0,23.765,10.658,23.765,23.758
	C407.494,330.974,396.834,341.635,383.731,341.635z M411.533,252.763c-13.103,0-23.763-10.658-23.763-23.76
	c0-13.103,10.661-23.763,23.763-23.763c13.102,0,23.761,10.661,23.761,23.763C435.294,242.105,424.635,252.763,411.533,252.763z"/>
<g>
	<path style="fill:#4F413B;" d="M179.129,57.7c-51.214,21.662-87.331,69.31-94.258,124.349c-0.393,3.117,1.818,5.962,4.934,6.355
		c0.24,0.03,0.48,0.046,0.717,0.046c2.824,0,5.275-2.104,5.637-4.978c6.422-51.027,39.913-95.205,87.403-115.291
		c2.894-1.224,4.246-4.561,3.024-7.455C185.359,57.829,182.021,56.477,179.129,57.7z"/>
	<path style="fill:#4F413B;" d="M384.752,127.471c0-13.103-10.661-23.763-23.762-23.763c-13.102,0-23.762,10.66-23.762,23.763
		c0,13.102,10.661,23.76,23.762,23.76C374.093,151.232,384.752,140.573,384.752,127.471z M348.605,127.471
		c0-6.829,5.556-12.386,12.385-12.386c6.829,0,12.385,5.557,12.385,12.386c0,6.828-5.556,12.382-12.385,12.382
		C354.161,139.854,348.605,134.3,348.605,127.471z"/>
	<path style="fill:#4F413B;" d="M285.2,39.18c-13.102,0-23.761,10.659-23.761,23.762c0,13.102,10.659,23.76,23.761,23.76
		s23.762-10.659,23.762-23.76C308.962,49.839,298.301,39.18,285.2,39.18z M285.2,75.324c-6.828,0-12.384-5.555-12.384-12.382
		c0-6.829,5.556-12.385,12.384-12.385c6.829,0,12.385,5.556,12.385,12.385C297.585,69.769,292.03,75.324,285.2,75.324z"/>
	<path style="fill:#4F413B;" d="M411.533,205.238c-13.103,0-23.763,10.661-23.763,23.763c0,13.102,10.661,23.76,23.763,23.76
		c13.102,0,23.761-10.658,23.761-23.76C435.294,215.9,424.635,205.238,411.533,205.238z M411.533,241.385
		c-6.829,0-12.386-5.555-12.386-12.382c0-6.83,5.557-12.386,12.386-12.386c6.828,0,12.384,5.557,12.384,12.386
		C423.917,235.831,418.361,241.385,411.533,241.385z"/>
	<path style="fill:#4F413B;" d="M213.405,114.497c-13.102,0-23.761,10.658-23.761,23.76c0,13.103,10.659,23.763,23.761,23.763
		c13.103,0,23.763-10.661,23.763-23.763C237.169,125.155,226.508,114.497,213.405,114.497z M213.405,150.643
		c-6.828,0-12.384-5.557-12.384-12.386c0-6.828,5.556-12.382,12.384-12.382c6.829,0,12.386,5.555,12.386,12.382
		C225.791,145.087,220.236,150.643,213.405,150.643z"/>
	<path style="fill:#4F413B;" d="M126.746,289.133c-13.102,0-23.761,10.661-23.761,23.762c0,13.103,10.659,23.763,23.761,23.763
		s23.761-10.661,23.761-23.763C150.507,299.794,139.849,289.133,126.746,289.133z M126.746,325.281
		c-6.828,0-12.384-5.556-12.384-12.386c0-6.829,5.556-12.385,12.384-12.385s12.384,5.556,12.384,12.385
		C139.13,319.725,133.575,325.281,126.746,325.281z"/>
	<path style="fill:#4F413B;" d="M135.933,183.662c-13.104,0-23.766,10.66-23.766,23.763c0,13.103,10.662,23.763,23.766,23.763
		c13.102,0,23.762-10.661,23.762-23.763C159.695,194.323,149.034,183.662,135.933,183.662z M135.933,219.811
		c-6.83,0-12.389-5.556-12.389-12.386s5.557-12.386,12.389-12.386c6.829,0,12.385,5.557,12.385,12.386
		S142.761,219.811,135.933,219.811z"/>
	<path style="fill:#4F413B;" d="M383.731,294.11c-13.102,0-23.762,10.658-23.762,23.758c0,13.105,10.661,23.767,23.762,23.767
		c13.103,0,23.765-10.662,23.765-23.767C407.494,304.768,396.834,294.11,383.731,294.11z M383.731,330.258
		c-6.829,0-12.385-5.558-12.385-12.39c0-6.828,5.556-12.381,12.385-12.381c6.83,0,12.387,5.553,12.387,12.381
		C396.117,324.701,390.561,330.258,383.731,330.258z"/>
	<path style="fill:#4F413B;" d="M440.268,336.353c22.482-35.12,34.366-75.827,34.366-117.718C474.634,98.078,376.554,0,255.999,0
		S37.365,98.078,37.365,218.635c0,41.891,11.883,82.598,34.366,117.718c17.836,27.863,41.643,51.179,69.578,68.406h-23.476
		c-26.172,0-47.465,21.292-47.465,47.463v54.088c0,3.141,2.547,5.689,5.689,5.689h359.886c3.141,0,5.689-2.547,5.689-5.689v-54.088
		c0-26.172-21.292-47.463-47.463-47.463h-23.416C398.665,387.533,422.441,364.202,440.268,336.353z M430.254,500.623H81.745v-19.351
		h348.509V500.623z M394.168,416.138c19.898,0,36.086,16.189,36.086,36.086v17.671H81.745v-17.671
		c0-19.899,16.189-36.086,36.087-36.086H394.168z M347.238,404.76H164.759c-17.119-8.409-32.748-19.09-46.625-31.543
		c13.349-7.332,47.407-21.278,91.293-3.925c30.199,11.942,73.057,18.989,113.246,18.987c22.15,0,43.47-2.157,61.425-6.799
		C372.778,390.439,360.448,398.272,347.238,404.76z M326.694,262.843H185.305l70.696-65.611L326.694,262.843z M290.888,214.087
		v-10.023h15.1v24.038L290.888,214.087z M198.773,274.22h114.454v102.556c-9.49-0.224-19.129-0.855-28.709-1.861v-57.042
		c0-3.141-2.547-5.689-5.689-5.689h-45.66c-3.141,0-5.689,2.547-5.689,5.689v45.697c-4.792-1.498-9.442-3.107-13.871-4.859
		c-5.068-2.004-10.016-3.615-14.837-4.907L198.773,274.22L198.773,274.22z M273.141,323.562v49.975
		c-11.789-1.636-23.344-3.881-34.282-6.72v-43.255H273.141z M324.604,376.856V274.22h16.582c2.34,0,4.441-1.432,5.296-3.609
		c0.856-2.178,0.289-4.657-1.425-6.249l-27.69-25.699v-40.286c0-3.141-2.547-5.689-5.689-5.689h-26.477
		c-3.141,0-5.689,2.547-5.689,5.689v5.153l-19.641-18.229l-0.019,0.02c-2.162-2.006-5.524-2.058-7.721-0.02l-85.188,79.062
		c-1.715,1.592-2.281,4.071-1.425,6.247c0.855,2.178,2.956,3.61,5.294,3.61h16.583v77.095c-38.671-6.617-67.403,7.447-77.853,13.725
		c-38.118-38.346-60.8-90.952-60.8-146.405c0-114.283,92.975-207.259,207.257-207.259s207.257,92.975,207.257,207.257
		c0,53.09-20.791,103.57-56.012,141.428C389.776,370.937,358.769,376.521,324.604,376.856z"/>
	<path style="fill:#4F413B;" d="M250.006,361.025c1.492,0,2.958-0.607,4.02-1.669c1.063-1.062,1.669-2.528,1.669-4.02
		c0-1.504-0.606-2.971-1.669-4.02c-1.062-1.062-2.528-1.669-4.02-1.669c-1.492,0-2.958,0.607-4.02,1.669
		c-1.062,1.049-1.669,2.516-1.669,4.02c0,1.492,0.607,2.958,1.669,4.02C247.048,360.417,248.516,361.025,250.006,361.025z"/>
</g>
</svg>